<?xml version="1.0" encoding="UTF-8" standalone="no"?>
<!-- Created with Inkscape (http://www.inkscape.org/) -->

<svg
   version="1.1"
   id="svg1"
   width="1752"
   height="1869.7893"
   viewBox="0 0 1752 1869.7893"
   sodipodi:docname="SrodekAllBlack.svg"
   inkscape:version="1.4 (e7c3feb1, 2024-10-09)"
   xmlns:inkscape="http://www.inkscape.org/namespaces/inkscape"
   xmlns:sodipodi="http://sodipodi.sourceforge.net/DTD/sodipodi-0.dtd"
   xmlns:xlink="http://www.w3.org/1999/xlink"
   xmlns="http://www.w3.org/2000/svg"
   xmlns:svg="http://www.w3.org/2000/svg">
  <sodipodi:namedview
     id="namedview1"
     pagecolor="#505050"
     bordercolor="#eeeeee"
     borderopacity="1"
     inkscape:showpageshadow="0"
     inkscape:pageopacity="0"
     inkscape:pagecheckerboard="0"
     inkscape:deskcolor="#505050"
     inkscape:zoom="0.095394537"
     inkscape:cx="655.17378"
     inkscape:cy="-1315.589"
     inkscape:window-width="1200"
     inkscape:window-height="1186"
     inkscape:window-x="0"
     inkscape:window-y="25"
     inkscape:window-maximized="0"
     inkscape:current-layer="svg1" />
  <defs
     id="defs1" />
  <g
     id="g1"
     transform="translate(-42.354167,-16.952652)"
     style="fill:#ff0000">
    <path
       style="fill:#ff0000"
       d="M 509.086,1419.9437 C 252.38349,1163.0457 42.354167,952.54025 42.354167,952.15394 c 0,-1.11205 682.387423,-683.20129 683.499973,-683.20129 1.30825,0 642.50006,641.19266 642.50006,642.50092 0,1.01314 -249.0789,250.54003 -250.0015,250.45113 -1.0066,-0.097 -118.99853,-117.6045 -118.99853,-118.51 0,-0.515 29.47463,-30.4135 65.49913,-66.4411 l 65.499,-65.5047 L 928.10237,709.20082 725.8524,506.95273 503.40412,729.4027 280.95584,951.85266 l 17.55795,17.86573 c 9.65687,9.82615 193.12149,193.29391 407.69916,407.70601 214.57772,214.4121 390.14125,390.3416 390.14125,390.9544 0,1.693 -116.73353,118.0314 -118.76513,118.3631 -1.214,0.1982 -148.61444,-146.6659 -468.50307,-466.7982 z m 175.01739,-58.7418 C 459.84132,1136.9393 276.35417,953.00231 276.35417,952.45302 c 0,-1.64084 448.36929,-449.50138 449.99916,-449.48857 1.85638,0.0146 408.00087,407.30363 408.00087,409.15064 0,0.73253 -29.2501,30.58454 -65.0002,66.33778 l -65.0002,65.00593 57.0016,56.9951 57.0016,56.995 122.9986,-122.9986 L 1364.3543,911.45156 1045.1037,592.20212 725.85303,272.95268 386.35408,612.45274 46.855127,951.9528 512.3539,1417.4524 l 465.49877,465.4996 57.00003,-57 56.9999,-56.9999 z M 233.85417,1140.9527 c -34.64673,-34.65 -63.21905,-63 -63.49405,-63 -0.275,0 27.84732,28.35 62.49405,63 34.64673,34.65 63.21905,63 63.49405,63 0.275,0 -27.84732,-28.35 -62.49405,-63 z m 883.50003,17.7454 c 0,-0.14 -18.5625,-18.7025 -41.25,-41.25 l -41.25,-40.9954 40.9954,41.25 c 38.1032,38.3398 41.5046,41.6995 41.5046,40.9954 z m 22.5,-19.7454 c 10.9897,-11 19.7562,-20 19.4812,-20 -0.275,0 -9.4915,9 -20.4812,20 -10.9897,11 -19.7562,20 -19.4812,20 0.275,0 9.4915,-9 20.4812,-20 z m -738.50003,-63.2971 c 0,-0.1633 -1.9125,-2.0758 -4.25,-4.25 l -4.25,-3.9529 3.95295,4.25 c 3.6762,3.9525 4.54705,4.7095 4.54705,3.9529 z m 883.00003,-81.20295 c 44.8225,-44.825 81.2704,-81.5 80.9954,-81.5 -0.275,0 -37.1729,36.675 -81.9954,81.5 -44.8225,44.82505 -81.2704,81.50005 -80.9954,81.50005 0.275,0 37.1729,-36.675 81.9954,-81.50005 z M 393.35417,836.95923 c 0,-0.275 -25.65,25.14704 -57,56.49342 -31.35,31.34638 -57,57.21842 -57,57.49342 0,0.275 25.65,-25.14704 57,-56.49342 31.35,-31.34638 57,-57.21842 57,-57.49342 z m 972.00003,72.74283 c 0,-0.13782 -143.6625,-143.80032 -319.25,-319.25 l -319.25003,-318.99941 318.99943,319.25 c 175.4497,175.5875 319.1122,319.25 319.25,319.25 0.1378,0 0.2506,-0.11276 0.2506,-0.25059 z M 559.35417,437.45265 c 91.02375,-91.025 165.27273,-165.5 164.99773,-165.5 -0.275,0 -74.97398,74.475 -165.99773,165.5 -91.02375,91.025 -165.27273,165.5 -164.99773,165.5 0.275,0 74.97398,-74.475 165.99773,-165.5 z M 789.10359,1315.2021 C 612.69141,1138.7893 468.35417,993.77742 468.35417,992.95357 c 0,-1.96284 248.03883,-250.00092 250.00167,-250.00092 0.82758,0 28.0519,26.55008 60.4985,59.00017 l 58.99381,59.00017 -65.99541,66.00109 -65.99542,66.0011 202.24845,202.24852 202.24843,202.2484 222.7496,-222.7496 222.7497,-222.74967 -407.7497,-407.75055 C 923.84147,319.93948 740.35417,136.00051 740.35417,135.44901 c 0,-1.30725 117.1962,-118.496358 118.5036,-118.496358 1.184,0 935.49643,934.130498 935.49643,935.314318 0,0.83084 -683.0909,683.56413 -684.0006,683.64263 -0.2753,0.024 -144.83783,-144.2947 -321.25001,-320.7075 z M 1424.5392,587.14782 C 1223.9624,386.15802 1014.7071,176.74553 959.52727,121.78673 L 859.20037,21.861642 826.52725,53.84091 c -17.97019,17.588597 -43.80903,43.148332 -57.41963,56.79941 l -24.74656,24.82014 407.99654,407.99564 c 224.3982,224.3976 407.9966,408.44546 407.9966,408.99526 0,1.3085 -448.1916,449.50134 -449.5001,449.50134 -0.5509,0 -93.0255,-92.0246 -205.49893,-204.499 l -204.49724,-204.49913 65.74835,-65.75401 65.74836,-65.75402 -57.00163,-56.99505 -57.00162,-56.99504 -122.74806,122.74806 -122.74806,122.74806 318.99888,319.00013 318.99895,319 339.1855,-339.1844 339.1855,-339.18448 z m 118.315,614.80488 c 68.7483,-68.75 124.772,-125 124.497,-125 -0.275,0 -56.7487,56.25 -125.497,125 -68.7483,68.75 -124.772,125 -124.497,125 0.275,0 56.7487,-56.25 125.497,-125 z M 787.35417,1076.6982 c 0,-0.14 -18.7875,-18.9275 -41.75,-41.75 l -41.75,-41.49555 41.49548,41.75005 c 38.56811,38.8047 42.00452,42.1994 42.00452,41.4955 z m -17.5,-149.74555 c 35.74683,-35.75 64.76923,-65 64.49423,-65 -0.275,0 -29.7474,29.25 -65.49423,65 -35.74683,35.75 -64.76923,65 -64.49423,65 0.275,0 29.7474,-29.25 65.49423,-65 z m 787.50003,23.74922 c 0,-0.13794 -107.6625,-107.80044 -239.25,-239.25 l -239.25,-238.99922 238.9992,239.25 c 131.4496,131.5875 239.1121,239.25 239.25,239.25 0.1379,0 0.2508,-0.11285 0.2508,-0.25078 z m -204,-438.00004 c 0,-0.13794 -103.6125,-103.75044 -230.25,-230.25 L 892.85417,52.452652 1122.8534,282.70265 c 126.4995,126.6375 230.112,230.25 230.25,230.25 0.1379,0 0.2508,-0.11287 0.2508,-0.25082 z M 824.35417,52.961912 c 0,-0.275 -18.225,17.720833 -40.5,39.99074 -22.275,22.269908 -40.5,40.715738 -40.5,40.990738 0,0.275 18.225,-17.72083 40.5,-39.990738 22.275,-22.269907 40.5,-40.71574 40.5,-40.99074 z"
       id="path1" />
    <path
       xlink:href="#path3"
       id="path4"
       d="m 858.85742,16.953125 c -1.3074,0 -118.5039,117.188845 -118.5039,118.496095 0,0.5515 183.48766,184.49112 407.74998,408.7539 l 407.75,407.75 -222.75,222.74998 -222.75,222.7481 -202.24803,-202.2481 -202.24805,-202.24802 65.9961,-66.00196 65.99414,-66 -58.99414,-59 c -32.4466,-32.45009 -59.67047,-59 -60.49805,-59 -1.96284,10e-6 -250.00195,248.03716 -250.00195,250 0,0.82385 144.33782,145.83528 320.75,322.24808 176.41218,176.4128 320.97468,320.733 321.24998,320.709 0.9097,-0.078 684,-682.81178 684,-683.64262 0,-1.18382 -934.31208,-935.314455 -935.49608,-935.314455 z m 33.9961,35.5 230.24998,229.998045 c 126.6375,126.49956 230.25,230.11206 230.25,230.25 0,0.13795 -0.1121,0.25196 -0.25,0.25195 -0.138,0 -103.7505,-103.6125 -230.25,-230.25 z m -68.5,0.507813 c 0,0.274999 -18.225,18.72228 -40.5,40.992187 -22.275,22.269905 -40.5,40.265235 -40.5,39.990235 0,-0.275 18.225,-18.72033 40.5,-40.990235 22.275,-22.269907 40.5,-40.267186 40.5,-39.992187 z m -98.5,215.992182 c -1.11255,0 -683.500004,682.08913 -683.500004,683.20118 0,0.38631 210.029914,210.8911 466.732424,467.7891 319.88863,320.1323 467.2899,466.997 468.5039,466.7988 2.0316,-0.3317 118.76366,-116.6703 118.76366,-118.3633 0,-0.6128 -175.56289,-176.543 -390.14061,-390.9551 C 491.63522,1163.0117 308.17054,979.5449 298.51367,969.71875 L 280.95508,951.85352 503.4043,729.40234 725.85156,506.95312 l 202.25,202.24805 202.25004,202.24805 -65.4981,65.5039 c -36.0245,36.02758 -65.49998,65.92638 -65.49998,66.44138 0,0.9055 117.99338,118.4128 118.99998,118.5098 0.9226,0.089 250,-249.43802 250,-250.45118 0,-1.30825 -641.19173,-642.49999 -642.49998,-642.5 z m 1,2.5 319.24998,318.99805 c 175.5875,175.44968 319.25,319.11218 319.25,319.25 0,0.13783 -0.1122,0.25196 -0.25,0.25195 -0.1378,0 -143.8003,-143.6625 -319.25,-319.25 z m -2.50196,0.5 c 0.275,10e-6 -73.97429,74.475 -164.99804,165.5 -91.02375,91.02501 -165.72305,165.50001 -165.99805,165.5 -0.275,10e-6 73.9743,-74.475 164.99805,-165.5 91.02375,-91.02499 165.72304,-165.5 165.99804,-165.5 z m 354.50194,200.5 239.25,238.99805 c 131.5875,131.44956 239.25,239.11206 239.25,239.25 0,0.13793 -0.1121,0.25196 -0.25,0.25195 -0.1379,10e-6 -107.8004,-107.6625 -239.25,-239.25 z m -44,603.99998 41.25,40.9942 c 22.6875,22.5475 41.25,41.11 41.25,41.25 0,0.7041 -3.4007,-2.6544 -41.5039,-40.9942 z m -864.49412,1.5 c 0.275,0 28.84741,28.35 63.49414,63 34.64673,34.65 62.76914,63 62.49414,63 -0.275,0 -28.84741,-28.35 -63.49414,-63 -34.64673,-34.65 -62.76915,-63 -62.49414,-63 z"
       style="fill:#ff0000" />
    <path
       d="m 858.85807,16.952652 c -1.3074,0 -118.5039,117.188848 -118.5039,118.496098 0,0.5515 183.48769,184.49111 407.75003,408.7539 l 407.75,407.75 -222.75,222.75005 -222.75,222.748 -202.24808,-202.248 -202.24805,-202.24809 65.9961,-66.00196 65.99414,-66 -58.99414,-59 c -32.4466,-32.45009 -59.67047,-59 -60.49805,-59 -1.96284,1e-5 -250.00195,248.03716 -250.00195,250 0,0.82385 144.33782,145.83525 320.75,322.24805 176.41218,176.4128 320.97473,320.733 321.25003,320.709 0.9097,-0.078 684,-682.81175 684,-683.64259 0,-1.18382 -934.31213,-935.314458 -935.49613,-935.314458 z m 33.9961,35.5 230.25003,229.998048 c 126.6375,126.49956 230.25,230.11206 230.25,230.25 0,0.13795 -0.1121,0.25195 -0.25,0.25195 -0.138,0 -103.7505,-103.6125 -230.25,-230.25 z m -68.5,0.507812 c 0,0.275 -18.225,18.722281 -40.5,40.992188 -22.275,22.269908 -40.5,40.265238 -40.5,39.990238 0,-0.275 18.225,-18.72033 40.5,-40.990238 22.275,-22.269907 40.5,-40.267187 40.5,-39.992188 z m -98.5,215.992186 c -1.11255,0 -683.500003,682.08912 -683.500003,683.20117 0,0.38631 210.029913,210.89108 466.732423,467.78908 319.88863,320.1323 467.28991,466.997 468.50391,466.7988 2.0316,-0.3317 118.7637,-116.6703 118.7637,-118.3633 0,-0.6128 -175.56294,-176.5429 -390.14066,-390.955 C 491.63587,1163.0113 308.17119,979.54443 298.51432,969.71828 l -17.55859,-17.86524 222.44922,-222.45117 222.44726,-222.44922 202.25,202.24805 202.24999,202.24805 -65.498,65.5039 c -36.0245,36.02755 -65.50003,65.92645 -65.50003,66.44145 0,0.9055 117.99343,118.4127 119.00003,118.5097 0.9226,0.089 250,-249.438 250,-250.45115 0,-1.30825 -641.19178,-642.5 -642.50003,-642.5 z m 1,2.5 319.25003,318.99805 c 175.5875,175.44968 319.25,319.11218 319.25,319.25 0,0.13783 -0.1122,0.25195 -0.25,0.25195 -0.1378,0 -143.8003,-143.6625 -319.25,-319.25 z m -2.50196,0.5 c 0.275,10e-6 -73.97429,74.475 -164.99804,165.5 -91.02375,91.025 -165.72305,165.5 -165.99805,165.5 -0.275,1e-5 73.9743,-74.475 164.99805,-165.5 91.02375,-91.025 165.72304,-165.5 165.99804,-165.5 z m 354.50199,200.5 239.25,238.99805 c 131.5875,131.44956 239.25,239.11206 239.25,239.25 0,0.13793 -0.1121,0.25195 -0.25,0.25195 -0.1379,1e-5 -107.8004,-107.6625 -239.25,-239.25 z m -44,604.00005 41.25,40.9941 c 22.6875,22.5475 41.25,41.11 41.25,41.25 0,0.7041 -3.4007,-2.6543 -41.5039,-40.9941 z m -864.49417,1.5 c 0.275,0 28.84741,28.35 63.49414,63 34.64673,34.65 62.76914,63 62.49414,63 -0.275,0 -28.84741,-28.35 -63.49414,-63 -34.64673,-34.65 -62.76915,-63 -62.49414,-63 z"
       id="path3"
       style="fill:#ff0000" />
  </g>
</svg>
